<svg width="257" height="269" viewBox="0 0 257 269" fill="none" xmlns="http://www.w3.org/2000/svg">
<g clip-path="url(#clip0_306_12)">
<path fill-rule="evenodd" clip-rule="evenodd" d="M114.348 246.426C172.372 246.426 219.409 199.305 219.409 141.178C219.409 83.0512 172.372 35.9302 114.348 35.9302C56.3236 35.9302 9.28584 83.0512 9.28584 141.178C9.28584 199.305 56.3236 246.426 114.348 246.426Z" stroke="#3AD29F" stroke-width="0.305962" stroke-dasharray="1.84 1.84"/>
<path fill-rule="evenodd" clip-rule="evenodd" d="M114.348 268.751C184.68 268.751 241.695 211.635 241.695 141.178C241.695 70.7213 184.68 13.605 114.348 13.605C44.0154 13.605 -13 70.7213 -13 141.178C-13 211.635 44.0154 268.751 114.348 268.751Z" stroke="#3AD29F" stroke-width="0.305962" stroke-dasharray="1.84 1.84"/>
<path d="M199.578 181.821C199.582 166.968 188.302 154.552 173.541 153.162C158.779 151.771 145.386 161.862 142.626 176.455L54.335 174.056L55.3043 189.252C55.3043 189.252 42.7146 218.352 108.882 226.106V255.519H185.376V206.616C194.165 201.46 199.57 192.024 199.578 181.821Z" fill="url(#paint0_linear_306_12)"/>
<path d="M58.3359 189.889C58.3359 189.889 46.2803 217.757 109.646 225.192V253.371H182.903V178.744L57.3949 175.335L58.3359 189.889Z" fill="#FFCBB4"/>
<path d="M94.9482 73.596C90.9718 79.8819 82.6744 81.7707 76.3767 77.8236L37.044 51.859C30.7692 47.8755 28.8838 39.5634 32.8239 33.2546C36.7997 26.9773 45.0865 25.0895 51.3812 29.027L90.7139 54.9916C96.9937 58.9704 98.8857 67.2835 94.9482 73.596Z" fill="url(#paint1_linear_306_12)"/>
<path d="M92.7692 72.1786C89.073 78.0215 81.3604 79.7773 75.5065 76.1086L38.933 51.9548C33.1005 48.252 31.3478 40.5258 35.01 34.6615C38.7062 28.8187 46.4188 27.0629 52.2727 30.7316L88.8391 54.8712C94.6827 58.5722 96.4397 66.3096 92.7692 72.1786Z" fill="#FFCBB4"/>
<path d="M168.997 210.33C184.191 210.33 196.508 197.991 196.508 182.77C196.508 167.55 184.191 155.211 168.997 155.211C153.804 155.211 141.487 167.55 141.487 182.77C141.487 197.991 153.804 210.33 168.997 210.33Z" fill="#FFCBB4"/>
<path d="M164.045 1H58.6578C56.2645 1 54.3244 2.94354 54.3244 5.34102V202.888C54.3244 205.285 56.2645 207.229 58.6578 207.229H164.045C166.438 207.229 168.378 205.285 168.378 202.888V5.34102C168.378 2.94354 166.438 1 164.045 1Z" fill="url(#paint2_linear_306_12)"/>
<path d="M162.007 3.78882H60.6882C58.0234 3.78882 55.8632 5.95289 55.8632 8.62242V199.613C55.8632 202.283 58.0234 204.447 60.6882 204.447H162.007C164.672 204.447 166.832 202.283 166.832 199.613V8.62242C166.832 5.95289 164.672 3.78882 162.007 3.78882Z" fill="white"/>
<path d="M139.226 8.82104C138.563 13.2181 134.797 16.473 130.358 16.4861H92.0334C87.5957 16.4713 83.8317 13.2168 83.1686 8.82104H62.8637C61.7458 8.82104 60.6732 9.26435 59.8824 10.056C59.0915 10.8476 58.6471 11.9216 58.6471 13.0416V195.187C58.6471 196.307 59.0897 197.382 59.8799 198.174C60.6701 198.966 61.7422 199.412 62.8602 199.412H159.835C160.953 199.412 162.026 198.968 162.817 198.177C163.608 197.385 164.052 196.311 164.052 195.191V13.0451C164.052 11.9252 163.609 10.8507 162.819 10.0585C162.029 9.2662 160.957 8.82104 159.839 8.82104H139.226Z" fill="#E9ECFF"/>
<path d="M123.163 11.22H99.8476C99.4568 11.22 99.1401 11.5373 99.1401 11.9287V12.0598C99.1401 12.4513 99.4568 12.7686 99.8476 12.7686H123.163C123.554 12.7686 123.87 12.4513 123.87 12.0598V11.9287C123.87 11.5373 123.554 11.22 123.163 11.22Z" fill="#DBDBDB"/>
<path d="M129.123 12.9946C129.76 12.9946 130.276 12.4777 130.276 11.8401C130.276 11.2024 129.76 10.6855 129.123 10.6855C128.487 10.6855 127.971 11.2024 127.971 11.8401C127.971 12.4777 128.487 12.9946 129.123 12.9946Z" fill="#DBDBDB"/>
<path d="M186.78 187.632C178.796 189.482 173.316 184.266 171.47 176.271L153.125 108.03C151.3 100.004 156.285 92.0084 164.285 90.1309C172.297 88.3023 180.279 93.297 182.153 101.311L197.123 171.313C198.97 179.311 194.76 185.782 186.78 187.632Z" fill="url(#paint3_linear_306_12)"/>
<path d="M180.095 102.982C178.538 96.2334 171.815 92.0267 165.079 93.5859C158.342 95.1452 154.143 101.88 155.699 108.628L172.569 181.768C174.125 188.516 180.848 192.723 187.584 191.164C194.321 189.604 198.52 182.87 196.964 176.121L180.095 102.982Z" fill="#FFCBB4"/>
<path d="M196.391 244.151H91.6832V268.602H196.391V244.151Z" fill="url(#paint4_linear_306_12)"/>
<path d="M193.561 246.986H94.5131V266.122H193.561V246.986Z" fill="#4D8AF0"/>
<path d="M79.6807 146.802C75.7525 153.013 67.5543 154.88 61.332 150.98L34.9534 133.881C28.7532 129.946 26.8898 121.734 30.7828 115.5C34.7109 109.289 42.9091 107.422 49.1314 111.322L75.51 128.421C81.7102 132.356 83.5737 140.568 79.6807 146.802Z" fill="url(#paint5_linear_306_12)"/>
<path d="M73.0587 182.993C69.0955 189.262 60.8227 191.146 54.5437 187.21L38.2043 175.275C31.9473 171.305 30.0664 163.018 33.9948 156.728C37.9579 150.459 46.2308 148.575 52.5097 152.511L68.8491 164.449C75.104 168.419 76.9847 176.704 73.0587 182.993Z" fill="url(#paint6_linear_306_12)"/>
<g opacity="0.5">
<path d="M111.348 135.99C128.919 135.99 143.163 121.72 143.163 104.118C143.163 86.5154 128.919 72.2458 111.348 72.2458C93.7765 72.2458 79.5321 86.5154 79.5321 104.118C79.5321 121.72 93.7765 135.99 111.348 135.99Z" fill="url(#paint7_linear_306_12)"/>
</g>
<path d="M111.348 134.115C127.886 134.115 141.292 120.685 141.292 104.118C141.292 87.5509 127.886 74.1206 111.348 74.1206C94.81 74.1206 81.4034 87.5509 81.4034 104.118C81.4034 120.685 94.81 134.115 111.348 134.115Z" fill="#69F0AE"/>
<path d="M98.3512 100.114L109.579 110.426L125.487 86.9912L131.104 91.6795L109.579 119.802L93.6712 101.992L98.3512 100.114Z" fill="white"/>
<path d="M71.7392 182.104C68.043 187.947 60.3304 189.703 54.4765 186.034L39.2372 174.921C33.4047 171.218 31.652 163.492 35.3142 157.628C39.0104 151.785 46.723 150.029 52.5769 153.698L67.8126 164.832C73.6335 168.533 75.3863 176.243 71.7392 182.104Z" fill="#FFCBB4"/>
<path d="M78.2304 145.863C74.5342 151.706 66.8216 153.461 60.9677 149.793L36.1491 133.704C30.3166 130.002 28.5639 122.275 32.2261 116.411C35.9223 110.568 43.6348 108.812 49.4887 112.481L74.3074 128.569C80.1399 132.272 81.8926 139.998 78.2304 145.863Z" fill="#FFCBB4"/>
<path d="M86.5009 110.78C82.5534 117.019 74.3182 118.893 68.0673 114.976L34.6386 93.1715C28.4112 89.217 26.5401 80.9673 30.4503 74.7053C34.3978 68.4669 42.633 66.5925 48.8838 70.5096L82.3125 92.3139C88.5399 96.2684 90.411 104.518 86.5009 110.78Z" fill="url(#paint8_linear_306_12)"/>
<path d="M84.7251 109.646C81.0289 115.489 73.3163 117.245 67.4624 113.576L36.1526 93.1537C30.3201 89.451 28.5674 81.7248 32.2296 75.8605C35.9258 70.0177 43.6383 68.2619 49.4922 71.9306L80.7985 92.3529C86.6323 96.0544 88.3866 103.781 84.7251 109.646Z" fill="#FFCBB4"/>
</g>
<defs>
<linearGradient id="paint0_linear_306_12" x1="126.962" y1="255.536" x2="126.962" y2="153.039" gradientUnits="userSpaceOnUse">
<stop stop-color="#808080" stop-opacity="0.25"/>
<stop offset="0.54" stop-color="#808080" stop-opacity="0.12"/>
<stop offset="1" stop-color="#808080" stop-opacity="0.1"/>
</linearGradient>
<linearGradient id="paint1_linear_306_12" x1="63.8825" y1="79.8896" x2="63.8825" y2="26.9681" gradientUnits="userSpaceOnUse">
<stop stop-color="#808080" stop-opacity="0.25"/>
<stop offset="0.54" stop-color="#808080" stop-opacity="0.12"/>
<stop offset="1" stop-color="#808080" stop-opacity="0.1"/>
</linearGradient>
<linearGradient id="paint2_linear_306_12" x1="111.351" y1="207.225" x2="111.351" y2="0.99646" gradientUnits="userSpaceOnUse">
<stop stop-color="#808080" stop-opacity="0.25"/>
<stop offset="0.54" stop-color="#808080" stop-opacity="0.12"/>
<stop offset="1" stop-color="#808080" stop-opacity="0.1"/>
</linearGradient>
<linearGradient id="paint3_linear_306_12" x1="175.149" y1="188.001" x2="175.149" y2="89.7482" gradientUnits="userSpaceOnUse">
<stop stop-color="#808080" stop-opacity="0.25"/>
<stop offset="0.54" stop-color="#808080" stop-opacity="0.12"/>
<stop offset="1" stop-color="#808080" stop-opacity="0.1"/>
</linearGradient>
<linearGradient id="paint4_linear_306_12" x1="144.044" y1="268.595" x2="144.044" y2="244.144" gradientUnits="userSpaceOnUse">
<stop stop-color="#808080" stop-opacity="0.25"/>
<stop offset="0.54" stop-color="#808080" stop-opacity="0.12"/>
<stop offset="1" stop-color="#808080" stop-opacity="0.1"/>
</linearGradient>
<linearGradient id="paint5_linear_306_12" x1="55.2264" y1="153.017" x2="55.2264" y2="109.288" gradientUnits="userSpaceOnUse">
<stop stop-color="#808080" stop-opacity="0.25"/>
<stop offset="0.54" stop-color="#808080" stop-opacity="0.12"/>
<stop offset="1" stop-color="#808080" stop-opacity="0.1"/>
</linearGradient>
<linearGradient id="paint6_linear_306_12" x1="53.5285" y1="189.266" x2="53.5285" y2="150.452" gradientUnits="userSpaceOnUse">
<stop stop-color="#808080" stop-opacity="0.25"/>
<stop offset="0.54" stop-color="#808080" stop-opacity="0.12"/>
<stop offset="1" stop-color="#808080" stop-opacity="0.1"/>
</linearGradient>
<linearGradient id="paint7_linear_306_12" x1="111.348" y1="135.99" x2="111.348" y2="72.2423" gradientUnits="userSpaceOnUse">
<stop stop-color="#808080" stop-opacity="0.25"/>
<stop offset="0.54" stop-color="#808080" stop-opacity="0.12"/>
<stop offset="1" stop-color="#808080" stop-opacity="0.1"/>
</linearGradient>
<linearGradient id="paint8_linear_306_12" x1="58.4738" y1="117.035" x2="58.4738" y2="68.4755" gradientUnits="userSpaceOnUse">
<stop stop-color="#808080" stop-opacity="0.25"/>
<stop offset="0.54" stop-color="#808080" stop-opacity="0.12"/>
<stop offset="1" stop-color="#808080" stop-opacity="0.1"/>
</linearGradient>
<clipPath id="clip0_306_12">
<rect width="257" height="269" fill="white"/>
</clipPath>
</defs>
</svg>
