<?xml version="1.0" encoding="UTF-8"?>
<svg version="1.1" viewBox="0 0 928 928" width="1280" height="1280" xmlns="http://www.w3.org/2000/svg">
<path transform="translate(0)" d="m0 0h928v928h-928z" fill="none"/>
<path transform="translate(676,410)" d="m0 0h20l29 2 24 4 23 5 26 8 20 8 16 9 11 9 14 14 9 13 8 15 5 14 4 18 10 70 1 17-2 13-5 14-6 10-9 11-13 10-14 6-12 3-44 7-46 5-30 2h-59v9l2 19v24l-4 15-7 13-8 10-10 9-14 8-25 8-36 9-48 9-47 6-38 3-20 1-36 1h-23l-35-1-43-3-49-6-35-6-34-7-44-11-12-4-14-7-11-9-9-11-8-16-3-11-1-17 16-145 5-21 5-12 8-15 9-12 11-12 13-10 16-10 21-12 31-15 29-11 30-9 26-6 31-5 20-2 18-1h42l35 2 39 5 26 5 24 6 22 7 4-2 11-9 11-7 14-7 19-7 29-8 31-6 18-2z" fill="#FEFEFE"/>
<path transform="translate(328,482)" d="m0 0h53l29 2 37 5 24 5 22 6 23 8 22 10 17 10 16 12 8 8 8 12 5 13 2 9 17 153-1 10-5 8-7 6-21 7-41 10-39 7-48 6-43 3-29 1h-48l-42-2-40-4-42-6-42-8-44-11-13-4-8-6-5-8-1-4v-9l12-106 4-35 6-18 7-11 9-10 10-8 15-9 16-9 27-13 24-9 18-6 28-7 29-5z" fill="none"/>
<path transform="translate(346,75)" d="m0 0 22 1 18 3 21 7 21 11 11 8 11 9 9 9 12 16 9 15 7 17 5 17 2 11 1 11v66l-3 22-6 20-10 21-8 12-9 11-15 15-15 11-14 8-20 8-22 5-7 1h-29l-18-3-17-5-20-9-11-7-12-9-13-12-10-12-9-14-8-16-5-13-5-22-1-7v-76l3-18 5-17 7-16 9-16 13-16 12-12 13-10 17-10 14-6 20-6 13-2z" fill="#FEFEFE"/>
<path transform="translate(676,147)" d="m0 0h20l19 3 18 6 17 9 12 9 10 9 9 10 10 15 7 15 6 20 2 17v13l-2 17-4 15-6 15-10 16-8 10-13 13-14 10-16 8-10 4-17 4-6 1h-27l-20-4-14-5-17-9-11-8-12-11-8-9-9-14-7-14-5-15-3-16v-28l4-20 5-14 9-17 10-13 9-10 14-11 13-8 14-6 17-5z" fill="#FEFEFE"/>
<path transform="translate(344,123)" d="m0 0h15l18 3 16 6 15 9 13 12 8 9 9 15 6 16 3 16v68l-3 16-6 15-6 11-7 9-9 10-13 10-16 8-17 5-5 1h-27l-17-4-16-7-12-8-12-11-9-11-9-16-5-15-2-10v-74l4-17 5-12 6-11 8-10 7-8 13-10 16-8 15-5z" fill="none"/>
<path transform="translate(671,458)" d="m0 0h31l21 2 27 5 19 5 21 7 16 8 10 8 8 9 8 14 5 16 11 76v8l-3 8-6 7-8 4-35 6-31 4-31 3-15 1h-63l-7-1-2-14-7-60-4-17-6-16-8-14-11-14-8-8-16-12-14-9v-2l12-6 25-8 27-6 20-3z" fill="none"/>
<path transform="translate(676,195)" d="m0 0h20l13 3 16 8 9 7 9 9 7 11 5 11 3 15v16l-3 14-8 17-9 11-9 8-14 8-17 5-15 1-17-3-13-5-12-8-12-12-8-13-5-14-2-14 1-15 4-15 8-15 12-13 11-8 14-6z" fill="none"/>
</svg>
