<svg width="18" height="18" viewBox="0 0 18 18" fill="none" xmlns="http://www.w3.org/2000/svg">
<path d="M8.21289 9.526L7.12539 8.45725C6.98789 8.31975 6.81602 8.251 6.60977 8.251C6.40352 8.251 6.22539 8.326 6.07539 8.476C5.93789 8.6135 5.86914 8.7885 5.86914 9.001C5.86914 9.2135 5.93789 9.3885 6.07539 9.526L7.68789 11.1385C7.83789 11.2885 8.01289 11.3635 8.21289 11.3635C8.41289 11.3635 8.58789 11.2885 8.73789 11.1385L11.9254 7.951C12.0754 7.801 12.1473 7.626 12.141 7.426C12.1348 7.226 12.0629 7.051 11.9254 6.901C11.7754 6.751 11.5973 6.67288 11.391 6.66663C11.1848 6.66038 11.0066 6.73225 10.8566 6.88225L8.21289 9.526ZM6.11289 16.3135L5.02539 14.476L2.96289 14.026C2.77539 13.9885 2.62539 13.8916 2.51289 13.7354C2.40039 13.5791 2.35664 13.4073 2.38164 13.2198L2.58789 11.101L1.18164 9.4885C1.05664 9.351 0.994141 9.1885 0.994141 9.001C0.994141 8.8135 1.05664 8.651 1.18164 8.5135L2.58789 6.901L2.38164 4.78225C2.35664 4.59475 2.40039 4.42288 2.51289 4.26663C2.62539 4.11038 2.77539 4.0135 2.96289 3.976L5.02539 3.526L6.11289 1.6885C6.21289 1.526 6.35039 1.41663 6.52539 1.36038C6.70039 1.30413 6.87539 1.3135 7.05039 1.3885L9.00039 2.2135L10.9504 1.3885C11.1254 1.3135 11.3004 1.30413 11.4754 1.36038C11.6504 1.41663 11.7879 1.526 11.8879 1.6885L12.9754 3.526L15.0379 3.976C15.2254 4.0135 15.3754 4.11038 15.4879 4.26663C15.6004 4.42288 15.6441 4.59475 15.6191 4.78225L15.4129 6.901L16.8191 8.5135C16.9441 8.651 17.0066 8.8135 17.0066 9.001C17.0066 9.1885 16.9441 9.351 16.8191 9.4885L15.4129 11.101L15.6191 13.2198C15.6441 13.4073 15.6004 13.5791 15.4879 13.7354C15.3754 13.8916 15.2254 13.9885 15.0379 14.026L12.9754 14.476L11.8879 16.3135C11.7879 16.476 11.6504 16.5854 11.4754 16.6416C11.3004 16.6979 11.1254 16.6885 10.9504 16.6135L9.00039 15.7885L7.05039 16.6135C6.87539 16.6885 6.70039 16.6979 6.52539 16.6416C6.35039 16.5854 6.21289 16.476 6.11289 16.3135ZM7.08789 14.9635L9.00039 14.1385L10.9504 14.9635L12.0004 13.1635L14.0629 12.676L13.8754 10.576L15.2629 9.001L13.8754 7.3885L14.0629 5.2885L12.0004 4.8385L10.9129 3.0385L9.00039 3.8635L7.05039 3.0385L6.00039 4.8385L3.93789 5.2885L4.12539 7.3885L2.73789 9.001L4.12539 10.576L3.93789 12.7135L6.00039 13.1635L7.08789 14.9635Z" fill="white" fill-opacity="0.7"/>
</svg>
