<svg width="18" height="18" viewBox="0 0 18 18" fill="none" xmlns="http://www.w3.org/2000/svg">
<path d="M11.6994 9.6059L11.3357 9.04719L11.3264 9.05324L11.3173 9.05959L11.6994 9.6059ZM11.6994 8.57377L11.3041 9.1106L11.3338 9.1325L11.3658 9.15098L11.6994 8.57377ZM7.56282 5.5278L7.95812 4.99097L7.93931 4.97712L7.91957 4.96462L7.56282 5.5278ZM6.69562 5.98276L7.36239 5.98082L7.36215 5.96915L6.69562 5.98276ZM6.71296 11.966L6.0463 11.968L6.04635 11.9868L6.04748 12.0057L6.71296 11.966ZM7.61196 12.4646L7.93477 13.0479L7.96538 13.031L7.99405 13.011L7.61196 12.4646ZM4.4998 2.46549H13.4998V1.13216H4.4998V2.46549ZM15.5331 4.49883V13.4988H16.8665V4.49883H15.5331ZM13.4998 15.5322H4.4998V16.8655H13.4998V15.5322ZM2.46647 13.4988V4.49883H1.13314V13.4988H2.46647ZM4.4998 15.5322C3.37683 15.5322 2.46647 14.6218 2.46647 13.4988H1.13314C1.13314 15.3582 2.64045 16.8655 4.4998 16.8655V15.5322ZM15.5331 13.4988C15.5331 14.6218 14.6228 15.5322 13.4998 15.5322V16.8655C15.3592 16.8655 16.8665 15.3582 16.8665 13.4988H15.5331ZM13.4998 2.46549C14.6228 2.46549 15.5331 3.37585 15.5331 4.49883H16.8665C16.8665 2.63947 15.3592 1.13216 13.4998 1.13216V2.46549ZM4.4998 1.13216C2.64045 1.13216 1.13314 2.63947 1.13314 4.49883H2.46647C2.46647 3.37585 3.37683 2.46549 4.4998 2.46549V1.13216ZM12.0631 10.1646C12.3821 9.95696 12.7628 9.6005 12.7621 9.07401C12.7613 8.53257 12.3618 8.18661 12.033 7.99656L11.3658 9.15098C11.4061 9.17424 11.4336 9.19384 11.4513 9.20827C11.4691 9.2228 11.474 9.22959 11.4717 9.22671C11.4692 9.2235 11.4581 9.20852 11.4476 9.18104C11.4367 9.15247 11.4288 9.11633 11.4287 9.07583C11.4287 9.03554 11.4364 9.00184 11.4453 8.97768C11.4538 8.95457 11.462 8.94402 11.4609 8.94549C11.4596 8.94715 11.4511 8.9581 11.43 8.97685C11.4091 8.99548 11.3785 9.01932 11.3357 9.04719L12.0631 10.1646ZM12.0947 8.03694L7.95812 4.99097L7.16753 6.06463L11.3041 9.1106L12.0947 8.03694ZM7.91957 4.96462C7.58201 4.75079 7.11702 4.63382 6.68204 4.83692C6.21025 5.05721 6.01965 5.53354 6.02909 5.99636L7.36215 5.96915C7.36103 5.91438 7.37204 5.91408 7.35679 5.94327C7.33893 5.97742 7.30142 6.01923 7.24614 6.04505C7.19501 6.06892 7.15813 6.06567 7.15227 6.06485C7.14731 6.06415 7.16687 6.06615 7.20607 6.09098L7.91957 4.96462ZM6.02896 5.98469L6.0463 11.968L7.37963 11.9641L7.36228 5.98082L6.02896 5.98469ZM6.04748 12.0057C6.07072 12.396 6.20525 12.8926 6.66954 13.1406C7.12693 13.3849 7.60906 13.2282 7.93477 13.0479L7.28915 11.8813C7.25066 11.9027 7.22066 11.9158 7.19914 11.9237C7.17749 11.9316 7.16758 11.9329 7.16842 11.9328C7.16954 11.9326 7.18388 11.9308 7.20816 11.9343C7.2334 11.938 7.26484 11.947 7.29767 11.9645C7.33059 11.9821 7.35631 12.0037 7.37451 12.024C7.39206 12.0436 7.39917 12.058 7.4002 12.0602C7.40107 12.0621 7.39684 12.0535 7.39168 12.0304C7.38655 12.0074 7.38125 11.9734 7.37845 11.9264L6.04748 12.0057ZM7.99405 13.011L12.0815 10.1522L11.3173 9.05959L7.22988 11.9183L7.99405 13.011Z" fill="white" fill-opacity="0.7"/>
</svg>
